<?xml version="1.0" standalone="yes"?>

<svg version="1.1" viewBox="0.0 0.0 960.0 720.0" fill="none" stroke="none" stroke-linecap="square" stroke-miterlimit="10" xmlns="http://www.w3.org/2000/svg" xmlns:xlink="http://www.w3.org/1999/xlink"><clipPath id="p.0"><path d="m0 0l960.0 0l0 720.0l-960.0 0l0 -720.0z" clip-rule="nonzero"></path></clipPath><g clip-path="url(#p.0)"><path fill="#000000" fill-opacity="0.0" d="m0 0l960.0 0l0 720.0l-960.0 0z" fill-rule="nonzero"></path><path fill="#000000" d="m211.28539 496.1827l45.25197 -90.503876l118.44095 0l45.251953 90.503876l-45.251953 90.503876l-118.44095 0z" fill-rule="nonzero"></path><path stroke="#f3f3f3" stroke-width="2.0" stroke-linejoin="round" stroke-linecap="butt" d="m211.28539 496.1827l45.25197 -90.503876l118.44095 0l45.251953 90.503876l-45.251953 90.503876l-118.44095 0z" fill-rule="nonzero"></path><path fill="#000000" d="m539.7697 313.30627l45.252014 -90.50389l118.44092 0l45.251953 90.50389l-45.251953 90.50391l-118.44092 0z" fill-rule="nonzero"></path><path stroke="#f3f3f3" stroke-width="2.0" stroke-linejoin="round" stroke-linecap="butt" d="m539.7697 313.30627l45.252014 -90.50389l118.44092 0l45.251953 90.50389l-45.251953 90.50391l-118.44092 0z" fill-rule="nonzero"></path><path fill="#000000" d="m375.45236 404.9239l45.251953 -90.50391l118.44095 0l45.251953 90.50391l-45.251953 90.503876l-118.44095 0z" fill-rule="nonzero"></path><path stroke="#f3f3f3" stroke-width="2.0" stroke-linejoin="round" stroke-linecap="butt" d="m375.45236 404.9239l45.251953 -90.50391l118.44095 0l45.251953 90.50391l-45.251953 90.503876l-118.44095 0z" fill-rule="nonzero"></path><path fill="#000000" d="m375.23654 223.81729l45.251953 -90.50391l118.44095 0l45.251953 90.50391l-45.251953 90.503876l-118.44095 0z" fill-rule="nonzero"></path><path stroke="#f3f3f3" stroke-width="2.0" stroke-linejoin="round" stroke-linecap="butt" d="m375.23654 223.81729l45.251953 -90.50391l118.44095 0l45.251953 90.50391l-45.251953 90.503876l-118.44095 0z" fill-rule="nonzero"></path></g></svg>

