<?xml version="1.0" standalone="yes"?>

<svg version="1.1" viewBox="0.0 0.0 936.0 546.0" fill="none" stroke="none" stroke-linecap="square" stroke-miterlimit="10" xmlns="http://www.w3.org/2000/svg" xmlns:xlink="http://www.w3.org/1999/xlink"><clipPath id="p.0"><path d="m0 0l936.0 0l0 546.0l-936.0 0l0 -546.0z" clip-rule="nonzero"></path></clipPath><g clip-path="url(#p.0)"><path fill="#000000" fill-opacity="0.0" d="m0 0l936.1365 0l0 546.5381l-936.1365 0z" fill-rule="nonzero"></path><path fill="#000000" d="m87.278244 392.01154l32.039375 -64.078705l83.85827 0l32.039368 64.078705l-32.039368 64.078705l-83.85827 0z" fill-rule="nonzero"></path><path stroke="#f3f3f3" stroke-width="2.0" stroke-linejoin="round" stroke-linecap="butt" d="m87.278244 392.01154l32.039375 -64.078705l83.85827 0l32.039368 64.078705l-32.039368 64.078705l-83.85827 0z" fill-rule="nonzero"></path><path fill="#000000" d="m324.86905 258.1877l32.039368 -64.07872l83.85828 0l32.039368 64.07872l-32.039368 64.078705l-83.85828 0z" fill-rule="nonzero"></path><path stroke="#f3f3f3" stroke-width="2.0" stroke-linejoin="round" stroke-linecap="butt" d="m324.86905 258.1877l32.039368 -64.07872l83.85828 0l32.039368 64.07872l-32.039368 64.078705l-83.85828 0z" fill-rule="nonzero"></path><path fill="#000000" d="m205.9106 325.0996l32.039368 -64.078705l83.85826 0l32.039368 64.078705l-32.039368 64.078705l-83.85826 0z" fill-rule="nonzero"></path><path stroke="#f3f3f3" stroke-width="2.0" stroke-linejoin="round" stroke-linecap="butt" d="m205.9106 325.0996l32.039368 -64.078705l83.85826 0l32.039368 64.078705l-32.039368 64.078705l-83.85826 0z" fill-rule="nonzero"></path><path fill="#000000" d="m205.9106 193.74744l32.039368 -64.078705l83.85826 0l32.039368 64.078705l-32.039368 64.078705l-83.85826 0z" fill-rule="nonzero"></path><path stroke="#f3f3f3" stroke-width="2.0" stroke-linejoin="round" stroke-linecap="butt" d="m205.9106 193.74744l32.039368 -64.078705l83.85826 0l32.039368 64.078705l-32.039368 64.078705l-83.85826 0z" fill-rule="nonzero"></path><path fill="#000000" fill-opacity="0.0" d="m510.7743 233.23079l386.83466 0l0 121.133865l-386.83466 0z" fill-rule="nonzero"></path><path fill="#000000" d="m587.5197 295.6102q0 3.21875 -1.359375 5.859375q-1.359375 2.640625 -4.0625 4.53125q-2.703125 1.890625 -6.765625 2.921875q-4.0625 1.03125 -9.46875 1.03125q-5.40625 0 -9.46875 -1.03125q-4.0625 -1.03125 -6.78125 -2.921875q-2.71875 -1.890625 -4.078125 -4.53125q-1.359375 -2.640625 -1.359375 -5.859375l0 -29.4375l3.90625 0l0 29.75q0 2.15625 1.140625 4.078125q1.140625 1.921875 3.390625 3.359375q2.25 1.4375 5.5625 2.28125q3.3125 0.84375 7.6875 0.84375q4.34375 0 7.65625 -0.84375q3.3125 -0.84375 5.5625 -2.28125q2.25 -1.4375 3.390625 -3.359375q1.140625 -1.921875 1.140625 -4.078125l0 -29.75l3.90625 0l0 29.4375l0 0zm56.625 1.65625q0 2.5 -0.65625 4.34375q-0.65625 1.84375 -1.828125 3.171875q-1.171875 1.328125 -2.8125 2.15625q-1.640625 0.828125 -3.609375 1.3125q-1.96875 0.484375 -4.21875 0.671875q-2.25 0.1875 -4.65625 0.1875l-24.78125 0l0 -42.9375l24.21875 0q1.84375 0 3.6875 0.15625q1.84375 0.15625 3.546875 0.578125q1.703125 0.421875 3.15625 1.171875q1.453125 0.75 2.53125 1.96875q1.078125 1.21875 1.6875 2.9375q0.609375 1.71875 0.609375 4.0625q0 2.09375 -0.515625 3.625q-0.515625 1.53125 -1.5625 2.625q-1.046875 1.09375 -2.671875 1.796875q-1.625 0.703125 -3.8125 1.109375q3.125 0.21875 5.34375 1.0625q2.21875 0.84375 3.625 2.25q1.40625 1.40625 2.0625 3.359375q0.65625 1.953125 0.65625 4.390625zm-6.78125 -20.15625q0 -0.90625 -0.125 -1.8125q-0.125 -0.90625 -0.5625 -1.734375q-0.4375 -0.828125 -1.265625 -1.546875q-0.828125 -0.71875 -2.265625 -1.234375q-1.4375 -0.515625 -3.546875 -0.8125q-2.109375 -0.296875 -5.078125 -0.296875l-19.03125 0l0 15.0l19.03125 0q4.21875 0 6.75 -0.609375q2.53125 -0.609375 3.890625 -1.640625q1.359375 -1.03125 1.78125 -2.40625q0.421875 -1.375 0.421875 -2.90625zm2.6875 20.09375q0 -2.4375 -0.84375 -4.15625q-0.84375 -1.71875 -2.59375 -2.8125q-1.75 -1.09375 -4.5 -1.609375q-2.75 -0.515625 -6.53125 -0.515625l-20.09375 0l0 17.46875l20.625 0q3.90625 0 6.578125 -0.453125q2.671875 -0.453125 4.3125 -1.46875q1.640625 -1.015625 2.34375 -2.609375q0.703125 -1.59375 0.703125 -3.84375zm15.09375 11.90625l0 -42.9375l3.90625 0l0 42.9375l-3.90625 0zm62.40625 -3.40625q-2.25 0.9375 -4.453125 1.71875q-2.203125 0.78125 -4.578125 1.34375q-2.375 0.5625 -5.0 0.875q-2.625 0.3125 -5.71875 0.3125q-3.8125 0 -7.328125 -0.625q-3.515625 -0.625 -6.546875 -1.875q-3.03125 -1.25 -5.5 -3.109375q-2.46875 -1.859375 -4.234375 -4.328125q-1.765625 -2.46875 -2.71875 -5.5625q-0.953125 -3.09375 -0.953125 -6.78125q0 -3.6875 0.953125 -6.78125q0.953125 -3.09375 2.71875 -5.5625q1.765625 -2.46875 4.234375 -4.328125q2.46875 -1.859375 5.5 -3.109375q3.03125 -1.25 6.53125 -1.875q3.5 -0.625 7.34375 -0.625q3.09375 0 5.71875 0.3125q2.625 0.3125 5.0 0.875q2.375 0.5625 4.578125 1.328125q2.203125 0.765625 4.453125 1.703125l0 4.6875q-1.78125 -1.125 -3.8125 -2.125q-2.03125 -1.0 -4.390625 -1.75q-2.359375 -0.75 -5.046875 -1.1875q-2.6875 -0.4375 -5.75 -0.4375q-6.1875 0 -10.71875 1.34375q-4.53125 1.34375 -7.484375 3.796875q-2.953125 2.453125 -4.375 5.9375q-1.421875 3.484375 -1.421875 7.796875q0 4.3125 1.421875 7.78125q1.421875 3.46875 4.375 5.921875q2.953125 2.453125 7.484375 3.78125q4.53125 1.328125 10.71875 1.328125q3.0625 0 5.796875 -0.4375q2.734375 -0.4375 5.125 -1.1875q2.390625 -0.75 4.40625 -1.734375q2.015625 -0.984375 3.671875 -2.078125l0 4.65625l0 0zm54.875 1.15625q-2.625 0.8125 -4.875 1.390625q-2.25 0.578125 -4.4375 0.9375q-2.1875 0.359375 -4.453125 0.53125q-2.265625 0.171875 -4.984375 0.171875q-6.3125 0 -11.40625 -1.53125q-5.09375 -1.53125 -8.671875 -4.390625q-3.578125 -2.859375 -5.515625 -6.921875q-1.9375 -4.0625 -1.9375 -9.125q0 -4.90625 1.859375 -9.0q1.859375 -4.09375 5.203125 -7.03125q3.34375 -2.9375 8.0 -4.5625q4.65625 -1.625 10.28125 -1.625q5.84375 0 10.40625 1.5625q4.5625 1.5625 7.6875 4.46875q3.125 2.90625 4.75 7.046875q1.625 4.140625 1.625 9.328125l0 0.96875l-45.78125 0q0.34375 4.0 2.0 7.21875q1.65625 3.21875 4.703125 5.46875q3.046875 2.25 7.5 3.453125q4.453125 1.203125 10.390625 1.203125q2.53125 0 5.125 -0.34375q2.59375 -0.34375 4.96875 -0.921875q2.375 -0.578125 4.34375 -1.3125q1.96875 -0.734375 3.21875 -1.515625l0 4.53125zm-0.3125 -21.1875q-0.21875 -3.28125 -1.46875 -6.265625q-1.25 -2.984375 -3.734375 -5.265625q-2.484375 -2.28125 -6.3125 -3.625q-3.828125 -1.34375 -9.171875 -1.34375q-5.03125 0 -8.8125 1.34375q-3.78125 1.34375 -6.40625 3.609375q-2.625 2.265625 -4.125 5.25q-1.5 2.984375 -1.90625 6.296875l41.9375 0zm19.1875 8.59375q0 2.90625 0.46875 5.0q0.46875 2.09375 1.96875 3.4375q1.5 1.34375 4.328125 1.984375q2.828125 0.640625 7.515625 0.640625l19.40625 0l0 3.78125l-20.1875 0q-5.15625 0 -8.515625 -0.828125q-3.359375 -0.828125 -5.34375 -2.5625q-1.984375 -1.734375 -2.765625 -4.390625q-0.78125 -2.65625 -0.78125 -6.3125l0 -28.84375l3.90625 0l0 28.09375zm45.4375 0q0 2.90625 0.46875 5.0q0.46875 2.09375 1.96875 3.4375q1.5 1.34375 4.328125 1.984375q2.828125 0.640625 7.515625 0.640625l19.40625 0l0 3.78125l-20.1875 0q-5.15625 0 -8.515625 -0.828125q-3.359375 -0.828125 -5.34375 -2.5625q-1.984375 -1.734375 -2.765625 -4.390625q-0.78125 -2.65625 -0.78125 -6.3125l0 -28.84375l3.90625 0l0 28.09375z" fill-rule="nonzero"></path></g></svg>

